<?xml version="1.0" encoding="UTF-8"?><svg id="Capa_2" xmlns="http://www.w3.org/2000/svg" viewBox="0 0 164.23 146.05"><defs><style>.cls-1{fill:#005ea8;}.cls-2{fill:#e6442e;}.cls-3{fill:#1a171b;}.cls-4{fill:#007d40;}.cls-5{fill:#fd0;}.cls-6{fill:none;stroke:#1a171b;}.cls-7{fill:#00101f;}</style></defs><g id="Capa_1-2"><g><path class="cls-4" d="m79.67,77.19c-.34,0,3.31-1.67,6.83-4.59,2.78-2.21,5.63-5.78,7.13-9.02.87-2.85,2.25-4.11,3.42-5.67.75-.94,2.04-2.83,2.57-3.57,1.82-2,3.75-4.94,5.24-5.76,1.81-.96,5.21-2.09,5.32-1.89.1,3.34-1.29,8.39-2.87,12.07-1.81,4.3-5.24,9.01-8.34,12.33-3.84,4.42-8.02,5.57-11.63,6.42-1.9.72-7.67.2-7.67-.33,0,0,0,.53,0,0"/><path class="cls-4" d="m110.28,43.43s-2.85-2.41-6.07-2.62c-2.66-.42-6.2.83-7.7,3.15-1.49,1.15-5.88,5.25-7.77,6.95-.99,5.62-.34,7.42-.34,12.77,0,.11,4.71-.95,5.86-1.15,1.29-1.36,2.99-4.82,4.48-6.83,1.61-1.68,3.74-4.62,5.68-6.82l5.76-2.39.1-3.06Z"/><path class="cls-5" d="m86.18,1.17s1.72.1,3.01.62c.85.33,1.77.97,2,1.68l.09.32c1.4,2.51-.32,10.16-.32,11.75,0,1.79-.82,9.33-1.13,10.8-.34,1.47-.99,4.41-.99,6.93,0,1.15-.09,7.86-.3,14.13-.23,6.3.09,15.65-.14,16.27,0,0-1.68.21-2.32.21-.26,0-2.25-.21-3.87-3.05-1.7-2.92-3.45-6.81-3.83-8.49-.23-1.98,0-4.83,0-7.53,0-7.35.94-21.71.94-22.16,0-.32-.1-2.19-.21-3.97,0-1.59.32-3.24.21-4.62-.42-3.27-1.93-7.04-1.93-7.77,0-.92-1.68-4.81,2.16-4.6,1.15-.53,5.54-.82,6.62-.53,0,0-1.08-.29,0,0"/><path class="cls-1" d="m76.56,2.62c-3.52.32-13.9,9.44-13.58,12.18,0,.85,1.29,3.15,1.29,4.18.64.44.53,4.2,1.37,4l3.31-2.62,3.01-.11c1.71-.09,5.22-.74,7.15-1.45l.21-2.85c.23-.94-.21-2.39-.21-3.45,0-1.7-1.72-4.5-1.72-6.12,0-.38.12-3.62-.84-3.77,0,0,.95.15,0,0"/><path class="cls-2" d="m91.27,3.59c-.73,0-.32,10.48-.43,12.25-.3.87-.62,6.73-.62,6.73,0,0,5.01-.24,5.22-.24l6.41-1.44s2.9-.12,4.6-.44c0-2.31-2.55-7.04-5.32-10.05-3.52-4.11-8.79-7.47-9.85-6.83,0,0,1.06-.64,0,0"/><path class="cls-5" d="m88.64,31.28c0,.21,6.39-.76,6.71-.76,2.75,0,5.01.23,7.37.44,1.58.1,5.01,1.45,7.17,1.98,0-1.98-2.16-12.47-3.56-12.47-3.4,0-6.94.52-10.34,1.37l-5.85.74c-.09.53-1.49,8.09-1.49,8.71,0,0,0-.62,0,0"/><path class="cls-1" d="m88.84,31.28l-.43,19.39v2.09l.14-.12s.09-1.13,1.38-2.71c1.67-1.06,5.1-4.51,5.42-4.71,2.55-2.41,4.04-4.41,8.96-4.41,1.41,0,4.39,2,5.77,2.41,1.1,0,.64-9.33-.18-10.38-2.71-1.06-7.17-2.18-10.71-2.32-3.4-.21-7.7,0-10.34.76,0,0,2.65-.76,0,0"/><path class="cls-4" d="m94.5,62.09s-5.1,1.79-8.32,1.7c-2.12-.11-3.96-2.62-4.49-4.21-.76-2.91-2.57-5.56-3.3-7.44-1.73-.33-6.76,2.38-8.34,3.56-3.95,2.62-8.99,6.09-8.66,6.72,0,0,5.26,9.44,10.47,11.97,1.82.83,4.71,3.13,7.7,2.8,2.66-1.06,6.82-4.06,9.83-6.8,2.94-3.57,5.1-8.29,5.1-8.29"/><path class="cls-4" d="m61.27,62.32c2.27-1.59,8.78-6.3,9.97-7.24-1.63-1.7-3.22-4.71-3.22-7.14,0-.53-1.37-4.51-1.51-4.83-.09-.3-1.38.44-1.79.44-.64,0-2.05-.65-2.69-.65-.76,0-5.24-1.45-5.65-1.77-.43-.21.12,1.77.12,3.33s.94,6.44.94,7.14c0,.53,3.74,10.81,3.84,10.71,0,0-.09.1,0,0"/><path class="cls-2" d="m66.41,43.35c-.42,1.27-8.64-1.38-10.13-2.12l-.44-3.24c.1-.21.85-5.15.85-6.83,0-1.77,1.91-9.03,2.55-9.85.64-.95,3.01-6.3,3.65-6.3,2.02.3,1.38,5.24,2.23,6.83.32.21,1.93,5.88,1.17,9.12-.64,3.24-1.29,5.65-.64,8.39,0,0,.99,3.37.75,4,0,0,.23-.63,0,0"/><path class="cls-1" d="m70.9,29.48s-4.17-2.11-4.49-.85c-.32,1.38-2.13,7.88-.11,14.08,1.93,6.17,1.49,7.32,2.37,8.69.64,1.15,1.58,4.21,2.11,3.77,2.04-.83,6.62-2.3,7.61-3.03-.23-3.15.29-13.33.29-14.45.09-2.97.99-5.59.35-6.21-.87-.64-3.1-.53-3.54-.53-.55,0-4.59-1.47-4.59-1.47"/><path class="cls-5" d="m79.12,18.8s.96,1.15.55,2.91c-.11,1.27-.55,4.3-.55,6.09l-.09,3.58s-3.01-.12-4.3-.55c-2.02-.62-6.18-2.07-6.3-2.07s-2.34.18-2.34-.96c0-1.27-.97-3.36-.73-4.62.08-.62,1.14-2.94,3.07-2.94,2.05,0,3.42,0,4.48-.21,1.08-.18,6.2-1.24,6.2-1.24"/><path class="cls-2" d="m82.75,23.72s.34-1.04,1.1-1.04c.37,0,.92.39,1.31,1.36.74,1.7,1.28,3.04,1.28,3.99,0,1.43-.66,2.28-.66,2.76,0,.6-.62,1.45-1.2,1.65-.46.1-1.1-.32-1.2-.69-.18-.48-1.13-1.72-1.4-2.58-.39-1.33-.49-2.48.09-3.14.18-.66.67-2.32.67-2.32"/><path class="cls-3" d="m116.6,103.2l-.05.21c-.59,2.29-1.74,5.94-3.95,7.16-.07.05-.14.09-.21.11-.64.33-1.31.41-2.02.33-.14-.03-.28-.07-.39-.13-1.15-.45-1.63-2.2-1.79-3.31-.32-2.04-.08-4.36.44-6.39.53-2.27,1.79-6.03,3.97-7.34.07-.05.16-.1.23-.12.64-.32,1.29-.36,1.98-.2,1.26.25,1.86,1.93,2.09,3.03.46,2.12.23,4.57-.3,6.64m1.8-11.19c-.58-.53-1.27-.9-2.05-1.1-1.26-.35-2.55-.11-3.75.43-.07.04-.16.08-.23.12-3.15,1.65-5.36,5.35-6.44,8.62-.55,1.72-1.01,3.73-1.1,5.72v1.33c.14,2.76,1.17,5.24,4.06,6.48,1.17.55,2.6.16,3.7-.44.09-.04.16-.09.25-.13,3.06-1.73,5.4-5.31,6.44-8.6,1.15-3.49,2.25-9.6-.9-12.43m25.28-1.17h-3.95c.32-2.49.66-5.01.89-7.52.07-.99.76-1.35,1.68-1.44.67-.05,1.56.05,2.23.23l.65.18v-3.21l-.46-.07c-3.24-.32-5.54,1.33-6.94,4.14-.94,1.9-1.49,4.39-1.58,6.52-.04,1.27-.96,1.99-2.18,1.91l-.56-.04v1.47h2.34c-.45,4.29-.95,8.57-1.42,12.87-.3,2.62-.6,5.23-.92,7.85-.21,1.64-.4,3.34-.69,4.94-.39,2.12-1.91,4.49-3.65,5.75l-.21.16v1.5l.53-.05c1.95-.13,3.45-1.18,4.58-2.72,1.19-1.65,2.11-4.25,2.38-6.32.97-8.01,1.96-16.06,2.94-24.08h4.35v-2.06Zm-43.98,13.57c-1.01,2.12-2.23,3.87-3.45,5.06-1.45,1.41-2.86,2.06-3.86,1.54-1.92-.98-1.7-5.47.46-10.05.99-2.11,2.21-3.88,3.4-5.09,1.47-1.44,2.9-2.1,3.91-1.56,1.84.96,1.7,5.45-.46,10.1m.09-.2c.06-.1.1-.22.15-.31-.05.12-.1.23-.15.31m2-12.94c-1.91-.9-4.02.3-5.53,1.59-.19.16-.39.35-.55.53-1.35,1.29-2.53,2.88-3.52,4.53.23-2.06.47-4.14.69-6.18.23-2.07-.53-.93-1.43-.53-1.1.51-3.42,1.1-4.02,1.24l-.39.1v1.7l.6-.12c.55-.09,1.1-.2,1.65-.3-.6,5.17-1.2,10.37-1.81,15.56-.41,3.47-.81,6.93-1.21,10.4-.23,1.89-.44,3.8-.71,5.68l-.09.72.69-.16c.66-.14,1.33-.28,2-.42l.34-.06.07-.35c.42-3.03.89-6.06,1.45-9.1.14-.83.27-1.65.46-2.47,1.92,1,4.1.05,5.79-1.21l.09-.05c2.32-1.79,4.23-4.53,5.49-7.15,1.24-2.6,2.22-5.7,2.25-8.57.05-1.93-.39-4.43-2.3-5.38m50.97,6.16c-.34.91-1.72,2.59-3.61,3.97v.02c-1.17.87-2.53,1.61-3.97,2.02.34-5.81,2-7.21,2.44-7.81.41-.62.96-1.17,1.53-1.56v-.02c.99-.63,2.05-.88,2.81-.51,1.24.69,1.5,2.33.81,3.89m1.97-6.14c-.21-.17-.43-.31-.69-.39-1.67-.65-3.4-.21-4.9.66-.15.1-.3.19-.46.3-2.61,1.79-4.57,4.92-5.66,7.83-.78,2-1.32,4.25-1.36,6.43v.54c.03.4.05.79.07,1.16.21,2.03.96,4.34,2.82,5.42.28.14.56.28.83.36,1.27.45,2.6.16,3.77-.41l.05-.02c2.09-1.02,4.37-3.31,5.71-5.22l.31-.44-.46-.28c-.23-.13-.45-.29-.71-.43l-.34-.24-.28.32c-1.12,1.22-2.71,2.81-4.28,3.63-.11.05-.23.12-.34.17l-.05.02c-2.17.99-2.95-.46-3.29-2.41-.15-.94-.2-2.11-.14-3.12,1.32-.41,2.6-.94,3.81-1.61l.08-.02c2.73-1.45,5.38-3.75,6.45-6.73.26-.71.44-1.55.44-2.36v-.09c0-1.2-.37-2.35-1.38-3.08m-7.12,4.34s-.02.02-.03.04c.01-.02.03-.04.03-.04m-.14.19s-.05.05-.05.06c0,0,.02-.02.05-.06m-60.89,13.57c.25-.25.59-.59.32-.98-.32-.47-.87-.1-1.22.11-.62.36-1.21.77-1.82,1.17-.32.23-2.25,1.52-2.69,1.17-.25-.2-.16-1.29-.14-1.58.11-1.13.35-2.26.48-3.38.05-.65.09-1.33.18-1.98.09-.55.21-1.12.3-1.68.34-2.06.67-4.13.98-6.2.21-1.38.33-4.04-1.16-4.8-1.04-.53-2.19.18-2.97.82-1.52,1.27-2.94,3.33-4,5.01-.29.51-.57,1.1-.84,1.63-.42.85-.83,1.72-1.25,2.57-.28.63-.59,1.27-.89,1.88.12-1.28.23-2.57.35-3.83.16-1.77.32-3.54.46-5.31.04-.94-.12-2.02-.96-2.55-1.62-.99-4,.8-5.11,1.88-1.17,1.17-2.25,3.06-3.05,4.53-.69,1.26-1.38,2.59-2,3.94.16-1.44.32-2.87.48-4.32.14-1.26.3-2.52.43-3.79.1-.64.16-1.31.26-1.95.21-1.21-.21-1.15-1.1-.57-.9.56-3.47,1.27-4.14,1.43l-.39.09v1.49l.59-.09c.51-.07,1.02-.16,1.52-.25-.71,6.36-1.4,12.71-2.09,19.06l-.07.61.59-.07c.65-.05,1.27-.09,1.91-.17l.32-.02.09-.33c.53-1.66,1.06-3.29,1.56-4.94.67-1.76,1.33-3.51,2-5.29.28-.7.69-1.49,1.06-2.16,1.03-1.84,2.28-3.61,3.63-5.24.14-.17.74-.83,1.02-.87.3.31.16,2.22.12,2.61-.07.71-.16,1.4-.28,2.09-.02.23-.16.79-.16,1.03-.07.69-.19,1.41-.25,2.12-.18,1.47-.37,2.94-.53,4.39-.25,2.18-.53,4.37-.78,6.55l-.07.58h.55c.71,0,1.55-.12,2.21-.3l.21-.04.09-.16c.42-.62.66-1.89.76-2.6.18-.89.62-1.91.94-2.76.3-.72.62-1.42.92-2.16.14-.32.42-.94.48-1.28.26-.74.78-1.72,1.15-2.42.99-1.88,2.12-3.75,3.29-5.51.19-.27,1.24-1.76,1.66-1.79.2.21.23,1.15.23,1.47-.66,4.44-1.33,8.89-2,13.33-.55,3.97,1.19,5.19,4.53,3.19.9-.53,1.86-1.27,2.62-1.95.34-.28.66-.55,1.01-.86.23-.18.45-.38.67-.59m-36.52-12.97c-.48,1.47-2.71,7-4.88,10.7v.02c-.89,1.54-1.79,2.74-2.5,3.17-2.43,1.51-3.03-.74-2.53-5.54.41-4.76,3.43-8.96,4.78-9.97.07-.05.16-.12.25-.19,1.73-1.08,4.95-.48,4.95-.48,0,0,.59.1-.07,2.28m.01-.04s.04-.14.07-.25c-.02.08-.05.16-.07.25m3.82,13.33l-.37-.24-.3.31c-.23.25-1.15,1.08-1.54.97-.37-.11-.3-1.65-.27-1.91.18-2.62.52-5.26.85-7.86.39-3.2.8-6.37,1.25-9.53.16-1.27-1.8-.19-2.23.3-.04-.03-.11-.04-.16-.07-1.47-.69-3.49-.62-4.94.09-.34.19-.66.35-.99.53-.13.1-.27.17-.41.26-4.36,2.64-6.51,7.31-7.44,12.16-.39,2.05-.67,4.69.14,6.69.51,1.25,1.47,2.25,2.87,2.43,1.2.16,2.44-.3,3.33-1.08.55-.45,1.08-1.1,1.52-1.69.1-.12.17-.23.26-.34,1.2-1.71,2.27-3.67,3.2-5.64-.12,1.42-.21,2.92-.21,3.42-.16.64-.14,1.95-.07,2.58.1.86.35,1.95,1.1,2.45.76.5,1.64.27,2.37-.11.99-.48,2.39-1.52,2.78-2.62l.07-.22-.14-.19c-.13-.25-.4-.5-.64-.67m-18.8-1.65l-.07-.85-.72.48c-3.06,2.07-6.8,3.02-10.48,2.32-4.66-.9-8.16-4.14-10.07-8.41-2.5-5.7-2.2-11.93,2.62-16.27,1.82-1.61,4.09-2.75,6.48-3.19,2.12-.36,4.39-.21,6.3.88,2.09,1.21,3.22,3.26,3.6,5.6l.03.04.02.04c.21.53.81.47,1.22.28l.3-.12v-7.2l-.23-.14c-2.67-1.66-5.65-2.36-8.77-2.36-9.52,0-17.2,7.68-17.2,17.19s7.66,17.31,17.2,17.31c2.8,0,7.19-1.77,9.67-3.01l.32-.16-.05-.33c-.05-.7-.12-1.42-.19-2.11"/><path class="cls-7" d="m82.27,26.13c.54-1.06.65-1.91.65-1.91,0,0,.3-1.06.83-1.15.09,0,.18,0,.28.05,0,0-.1-.05,0,0,.29.16.62.51.96,1.19.78,1.75,1.11,2.97,1.13,3.8.03,1.24-.39,1.84-.57,2.55-.21.78-.56,1.33-.9,1.47-.21.11-.42.09-.62-.05-.17-.09-.35-.3-.53-.62-.62-.99-1.22-2.11-1.45-3.19-.11-.73-.09-1.49.23-2.14m1.02,6.14c.22.37.5.6.74.75.25.09.44.14.64.09.57-.09,1.07-.8,1.39-1.84.19-.76.76-1.4.81-2.57.07-1.03-.29-2.55-1.59-4.94-.46-.85-.87-1.27-1.26-1.43-.12-.04-.28-.04-.37-.04-.74.11-1.15,1.38-1.15,1.38,0,0-.09.99-.82,2.27-1.22,1.95.14,4.28,1.61,6.32m-16.23-20.09s-.03.05-.03.07c.02-.04.03-.07.03-.07m-.03.07c-.03.05-.08.13-.12.21.03-.06.07-.13.12-.21m30.74-6.76s.02.02.03.03c-.01-.02-.03-.03-.03-.03m.03.03s.05.04.06.04c-.02,0-.04-.03-.06-.04m10.17,34.67c-1.38,0-2.25-.85-3.66-.85-1.17,0-1.9.32-3.1.41-.68.07-1.35.07-1.94.18-.51.1-.97.28-1.36.67l-.13.14c-2.14,2.16-3.36,4.6-6.37,4.6-.26,0-.41-.16-.57-.33h-.02c-.1-.13-.19-.27-.26-.31l.21-11.12s.02-.03.05-.03h.02c2.27-1.05,4.37-1.81,6.94-2,.46-.05.91-.06,1.42-.06h.07c3.49,0,5.83.2,8.47,2.32,1.52,1.12,1.37,2.8,1.37,4.69,0,.74-.5,1.7-1.14,1.7m-8.7,26.61c-.51.55-1.02,1.08-1.5,1.58-2.4,2.47-4.83,4.49-6.94,5.72l-.02.02c-.51.29-.99.55-1.46.76-.34.16-.68.27-1.01.36-.52.16-1.01.21-1.42.16-.32-.02.35-.39,1.42-1.22.3-.23.64-.48,1.01-.78.46-.42.95-.88,1.46-1.4l.02-.02c1.56-1.61,3.24-3.91,4.31-7.05.83-2.39,1.72-4.46,2.63-6.18.48-.95.99-1.82,1.5-2.58,4.68-7.19,9.34-7.17,9.34-6.78-.41,5.42-4.59,12.14-9.34,17.4m-14.89,5.6s.09-.06.15-.1c-.05.03-.09.06-.15.1m-7.5,1.84c-1.93-.25-3.67-1.06-5.26-2.16-1.68-1.17-3.18-2.71-4.41-4.16l-.07-.07c-.5-.62-.96-1.24-1.36-1.81-1.24-1.75-1.93-3.11-1.93-3.11,0,0,.74-.55,1.93-1.44.4-.33.85-.67,1.36-1.04l.07-.05c1.26-.96,2.79-2.07,4.41-3.24.05-.05.11-.07.16-.12,4.37-3.15,7.26-1.65,8.94,4.51.6,2.07,2,3.07,3.63,3.51,1.31.32,2.73.3,4,.14.34-.04.69-.09,1.01-.16.58-.1,1.06-.21,1.46-.32l.02-.02c.62-.14,1.01-.3,1.01-.3,0,0-.03.05-1.01,1.27l-.02.04c-.38.43-.8,1.03-1.46,1.78-.25.3-.5.62-.8.99l-.21.21c-1.31,1.63-2.66,2.83-4,3.73-2.6,1.72-5.19,2.18-7.47,1.81m-15.67-16.94v.04s0-.02,0-.04c-.02-.25-.02-.46-.02-.46l-.02-.02c-.07-.23-.46-1.24-.71-2.31-.44-1.24-1.41-2.8-1.64-3.76-.3-.93-.94-4.72-.94-6.3s.85-.83,1.72-.09c.55.44,1.11.62,1.56.72l.04.02c.35.04.65.09.94.12.76,0,1.4.64,2.57,0,1.06-.53.94.42,1.06.73.1.3.33,1.03.53,1.88.1.69.1,2.88.83,4.5.02.05.05.1.07.14.06.09.11.21.18.27.69,1.33.04,1.91-.18,2.09-.03.02-.05.02-.05.02h-.02c-.05.12-.44.65-1.36,1.52-.48.44-1.12.99-1.93,1.63-1.95,1.52-2.48.07-2.64-.71m-3.77-19.44c.09-.18.64-5.13.64-6.92.1-1.8,1.18-7.77,2.25-9.01.39-.53.64-1.05.83-1.48l.04-.1c.31-.69.51-1.13,1.06-.94.85.3.73,1.04.3,1.89-.42.83.22,3.05,1.17,3.57.85.41,1.84,3.56.65,7.23-1.06,3.68-.94,4.94-.3,7.65,0,0,.5,1.06.3,1.7-.3.83-1.68-.08-3.18-.85l-.04-.02c-.76-.41-1.56-.78-2.21-.83-1.93-.18-1.52-1.67-1.52-1.88m8.34-22.96c.22-1.01.78-1.83,1.29-2.73.02-.09.04-.16.07-.23l.07-.16c.48-1.01.96-1.96,2-2.43.64-.33,1.56-.99,2-1.42.18-.14.34-.32.5-.51,1.04-1.17,1.63-1.59,3.47-1.86.97.12.76,1.26.97,2.32.62,1.77,1.38,2.61,1.38,4.29,0,1.06-.21,1.67-.42,2.62v2.21c-1.93,0-3.3.41-4.91,1.14h-2.99l-1.41.74c-.23.07-.41.09-.59.09h-.07c-.37-.02-.6-.21-1.03-.53,0-.68-.21-1.17-.33-1.74-.07-.25-.11-.53-.11-.87s.05-.62.11-.92m11.22,24.06c.85,1.26.11,5.49.32,8.64.21,3.15-.65,2.93-3.01,4.11-1.36.76-2.07.65-2.69.12-.41-.37-.76-.97-1.26-1.7-1.39-1.89-.62-2.2-2.76-8.59-.16-.37-.25-.76-.38-1.11-.03-.07-.05-.16-.07-.23-.9-3.27-.55-5.14,0-6.5.02-.04.05-.09.07-.14.36-.78.77-1.38,1.03-2,.48-1.1,2.25-.64,3.38-.23.59.23,1.01.44,1.01.44,0,0,2.02.96,2.87,1.38.87.3.94-.07,1.82.64.5.39-.05,1.08-.07,2.05-.05,1.47-.42,1.56-.25,3.12m.76-17.14c-.22,1.48-.22,2.74-.43,4.71-.21,1.79-.21,3.59-3.01,2.41-.9-.35-1.84-.69-2.69-.97-1.36-.48-2.46-.8-2.53-.8-.12,0-1.45-.04-1.72-1.17-.11-.21.02-.37-.14-.46-.01-.03-.04-.07-.09-.12-.11-.25-.2-.82,0-1.47l.02-.05c.02-.07.05-.16.05-.28.18-.8-.07-1.4,1.67-1.4,1.19,0,2.05-.02,2.74-.12.5-.05.87-.09,1.31-.19,1.08-.23,2.16-.34,2.16-.34,0,0,2.88-1.14,2.67.23m.08-.58s.01-.05,0,0m3.11-17.37c1.5,0,2.64-.02,3.4-.05.72-.02,1.1-.05,1.1-.05,0,0,1.63-.14,2.89.38.39.16.76.36,1.01.66.33.42.49.94.35,1.68-.51,3.26,0,7.14,0,8.8-.05.99-.14,3.35-.35,5.6-.15,1.86-.41,3.68-.8,4.58-.07.16-.14.3-.21.46-.73,2.02-1.08,4.78-.87,7.1.09,2.65-1.08,26.87-1.08,26.87,0,0-.24,4.53-2.04,1.67-.23-.38-.5-.94-.84-1.67-2.45-5.77-4.27-7.77-3.94-15.22.32-7.45.74-20.24,1.28-21.3.5-1.06.64-5.77,0-9.65-.64-3.77-1.61-6.48-1.61-7.35-.12-.91-1.19-2.5,1.7-2.5m9.87,49.96l.02-.08c.46-.82,1.08-1.84,1.96-3.21,1.77-2.71,3.44-4.57,4.99-5.81.5-.41,1.01-.76,1.5-1.03,5.3-3.08,8.7,1.19,8.7,1.19,0,0-5.96,3.02-8.7,7.37-.51.77-.92,1.63-1.16,2.5-.09.36-.21.67-.34.98-1.36,3.15-5.08,5.17-6.94,5.7h-.02c-.6.22-.97.22-.97.03.14-4.18-.62-4.58.97-7.63-1.42,2.73-.23.43,0,0m.39-25.51c0-1.15.64-1.79.64-2.94,0-.73.09-1.57.85-1.57h3.96c.36-.11.75-.19,1.13-.28.53-.14,1.01-.25,1.5-.35,1.94-.43,3.57-.64,6.03-.64,1.29,0,1.59,1.26,2.03,2.52.5,1.65.73,2.51.73,4.3v1.66c-2.11-.53-3.31-.63-5.33-.92-1.38-.21-2.43-.46-3.46-.66-.51-.09-1-.18-1.5-.26-.63-.06-1.31-.14-2.09-.14-1.51,0-3.33-.3-4.27.83-.55-.3-.21-.94-.21-1.56m.5-10.18c.14-.93,0-1.35.35-2.2l.21-6.71c0-.74-.85-1.68-.42-1.89.95-.37,3.48.92,5.93,2.9.5.41,1.01.85,1.5,1.31,2.38,2.24,4.41,4.97,4.52,7.24,0,.42-2.03.3-2.03.3l-2.49.52-1.5.33-2.41.51s-3.22.44-3.66,0c-.5-.51,0-2.31,0-2.31m7.57-11.35c-.49-.45-1-.9-1.5-1.31-2.2-1.68-4.48-3.13-6.94-4.05l-.02-.02c-.49-.19-.94-.35-1.46-.51-.34-.09-.66-.18-1.01-.27-1.29-.35-2.62-.53-4-.6-.35-.02-.69-.05-1.06-.05-4.16,0-8.11,1.25-11.67,3.45-1.54.96-2.99,2.09-4.41,3.4l-.07.06c-.46.46-.92.92-1.36,1.41-1.68,1.82-3.21,3.86-4.57,6.11l-.04.07c-4.05,6.87-6.5,15.63-6.5,25.16s2.45,18.36,6.5,25.25l.04.07c1.36,2.28,2.9,4.32,4.57,6.14.44.48.9.94,1.36,1.37l.07.07c1.42,1.31,2.87,2.46,4.41,3.42,3.56,2.21,7.51,3.4,11.67,3.4.37,0,.71,0,1.06-.01,1.38-.04,2.71-.25,4-.58.34-.09.66-.19,1.01-.3.51-.13.97-.29,1.46-.5h.02c2.46-.94,4.8-2.29,6.94-4.05.5-.41,1.01-.85,1.5-1.3,7.62-7.18,12.66-19.28,12.66-32.98s-5.03-25.69-12.66-32.86m-32.44,5.81c-.06.09-.07.13,0,0"/></g><line class="cls-6" y1="131.5" x2="164.23" y2="131.5"/><g><path class="cls-3" d="m6.05,142.5c0,1.12,0,2,.06,2.49.04.34.11.6.46.64.16.02.42.05.58.05.15,0,.2.04.2.09,0,.08-.08.12-.26.12-.74,0-1.47-.04-1.77-.04s-1.04.04-1.48.04c-.16,0-.25-.02-.25-.12,0-.06.05-.09.18-.09.18,0,.32-.02.42-.05.23-.05.29-.3.34-.64.06-.49.06-1.37.06-2.49v-2.06c0-1.77,0-2.1-.02-2.48-.02-.4-.12-.58-.5-.67-.09-.02-.29-.03-.46-.03-.12,0-.2-.02-.2-.09,0-.09.09-.12.27-.12.3,0,.64.01.95.01.3.01.57.02.74.02.44,0,2.81,0,3.08-.01.22-.01.36-.01.48-.05.07-.02.13-.07.19-.07.05,0,.08.05.08.11,0,.08-.06.22-.09.52-.01.12-.04.81-.06.95-.01.09-.04.16-.12.16s-.11-.06-.12-.19c0-.09,0-.28-.07-.44-.08-.16-.33-.34-.77-.35l-1.8-.03c-.07,0-.11.03-.11.16v2.92c0,.07.01.11.08.11h1.49c.2-.01.36-.01.53-.02.22-.01.39-.06.5-.21.06-.07.08-.12.15-.12.05,0,.07.03.07.1s-.06.36-.09.72c-.02.23-.05.77-.05.85,0,.11,0,.22-.12.22-.07,0-.09-.08-.09-.16s-.02-.22-.07-.36c-.06-.16-.23-.37-.6-.42-.29-.04-1.53-.04-1.73-.04-.06,0-.08.02-.08.11v.95Z"/><path class="cls-3" d="m21.84,140.44c0-1.77,0-2.1-.02-2.48-.02-.4-.12-.58-.5-.67-.09-.02-.29-.03-.46-.03-.13,0-.2-.02-.2-.11s.08-.1.26-.1c.62,0,1.35.03,1.71.03.28,0,1.02-.03,1.44-.03.18,0,.26.02.26.1s-.07.11-.19.11c-.13,0-.2.01-.34.03-.32.06-.41.26-.43.67-.02.37-.02.7-.02,2.48v1.63c0,1.69.34,2.41.91,2.87.53.43,1.06.48,1.46.48.51,0,1.14-.16,1.61-.63.64-.64.68-1.69.68-2.9v-1.46c0-1.77,0-2.1-.02-2.48-.02-.4-.12-.58-.5-.67-.09-.02-.29-.03-.42-.03s-.2-.02-.2-.11.08-.1.24-.1c.6,0,1.33.03,1.34.03.14,0,.88-.03,1.33-.03.16,0,.24.02.24.1s-.07.11-.21.11c-.13,0-.2.01-.34.03-.31.06-.41.26-.43.67-.02.37-.02.7-.02,2.48v1.25c0,1.3-.13,2.67-1.11,3.52-.83.71-1.67.84-2.43.84-.62,0-1.74-.04-2.59-.81-.6-.54-1.04-1.4-1.04-3.09v-1.71Z"/><path class="cls-3" d="m43.44,144.29c.02.91.18,1.21.41,1.3.2.07.42.08.61.08.13,0,.2.02.2.09,0,.09-.11.12-.27.12-.76,0-1.23-.04-1.45-.04-.11,0-.65.04-1.26.04-.15,0-.26-.01-.26-.12,0-.07.07-.09.19-.09.15,0,.36-.01.53-.06.3-.09.35-.43.36-1.45l.11-6.91c0-.23.04-.4.15-.4.13,0,.23.15.43.36.14.15,1.91,2.05,3.62,3.75.79.79,2.37,2.48,2.57,2.66h.06l-.12-5.24c-.01-.71-.12-.93-.4-1.05-.18-.07-.46-.07-.62-.07-.14,0-.19-.04-.19-.11,0-.09.13-.1.3-.1.61,0,1.17.03,1.41.03.13,0,.57-.03,1.14-.03.15,0,.27.01.27.1,0,.07-.07.11-.21.11-.12,0-.21,0-.35.03-.33.09-.42.34-.43.99l-.13,7.37c0,.26-.05.36-.15.36-.13,0-.27-.13-.4-.26-.74-.7-2.23-2.23-3.44-3.43-1.27-1.26-2.57-2.72-2.78-2.94h-.03l.13,4.9Z"/><path class="cls-3" d="m64.35,140.44c0-1.77,0-2.1-.02-2.48-.02-.4-.12-.58-.5-.67-.09-.02-.29-.03-.45-.03-.13,0-.2-.02-.2-.11s.08-.1.26-.1c.31,0,.65.01.95.01.3.01.57.02.73.02.37,0,2.7,0,2.92-.01.22-.02.41-.05.5-.07.06-.01.13-.05.19-.05s.07.05.07.11c0,.08-.06.22-.09.76-.01.12-.03.63-.06.77-.01.06-.03.13-.12.13s-.11-.06-.11-.16c0-.08-.01-.28-.07-.42-.08-.21-.2-.35-.78-.42-.2-.02-1.42-.05-1.66-.05-.06,0-.08.03-.08.12v2.96c0,.08.01.13.08.13.26,0,1.6,0,1.87-.02.28-.02.45-.06.56-.17.08-.09.13-.15.19-.15.05,0,.08.02.08.09s-.05.26-.09.85c-.01.23-.05.7-.05.78,0,.09,0,.22-.11.22-.08,0-.1-.05-.1-.1-.01-.12-.01-.27-.05-.42-.06-.23-.22-.41-.65-.46-.22-.02-1.38-.04-1.66-.04-.06,0-.07.05-.07.12v.92c0,.4-.01,1.47,0,1.81.02.81.21.98,1.4.98.3,0,.79,0,1.1-.14.3-.14.44-.39.52-.86.02-.13.05-.18.13-.18.09,0,.09.09.09.21,0,.27-.09,1.06-.15,1.3-.08.3-.19.3-.63.3-.88,0-1.52-.02-2.02-.03-.5-.02-.86-.04-1.21-.04-.13,0-.39,0-.67.01-.27,0-.57.02-.81.02-.15,0-.23-.04-.23-.12,0-.06.05-.09.19-.09.18,0,.32-.02.42-.05.23-.05.29-.3.34-.64.06-.49.06-1.41.06-2.49v-2.06Z"/><path class="cls-3" d="m82.23,140.44c0-1.77,0-2.1-.02-2.48-.02-.4-.12-.58-.5-.67-.09-.02-.29-.03-.45-.03-.13,0-.2-.02-.2-.11s.08-.1.26-.1c.62,0,1.35.03,1.6.03.4,0,1.28-.03,1.65-.03.74,0,1.52.07,2.15.5.33.22.79.82.79,1.6,0,.86-.36,1.66-1.54,2.61,1.04,1.31,1.84,2.35,2.53,3.07.65.68,1.13.76,1.31.79.13.02.23.03.33.03s.14.04.14.09c0,.09-.08.12-.22.12h-1.11c-.65,0-.94-.06-1.25-.22-.5-.27-.94-.82-1.6-1.72-.47-.64-1-1.44-1.16-1.61-.06-.07-.13-.08-.21-.08l-1.02-.02c-.06,0-.09.02-.09.09v.16c0,1.09,0,2.01.06,2.5.04.34.11.6.46.64.18.02.43.05.57.05.09,0,.14.04.14.09,0,.08-.08.12-.24.12-.68,0-1.54-.04-1.72-.04-.22,0-.96.04-1.42.04-.15,0-.23-.04-.23-.12,0-.06.05-.09.19-.09.18,0,.32-.02.42-.05.23-.05.29-.3.34-.64.06-.49.06-1.41.06-2.49v-2.06Zm1.38.92c0,.13.02.18.11.21.25.08.6.12.89.12.47,0,.62-.05.83-.2.35-.26.69-.79.69-1.75,0-1.66-1.1-2.14-1.79-2.14-.29,0-.5.01-.62.05-.08.02-.11.07-.11.16v3.55Z"/><path class="cls-3" d="m102.01,142.84c-.06,0-.08.02-.1.09l-.63,1.67c-.11.29-.17.57-.17.71,0,.21.1.36.47.36h.18c.14,0,.18.02.18.09,0,.09-.07.12-.2.12-.37,0-.88-.04-1.24-.04-.13,0-.77.04-1.38.04-.15,0-.22-.02-.22-.12,0-.07.05-.09.14-.09.11,0,.27-.01.36-.02.54-.07.76-.47.99-1.05l2.93-7.33c.14-.34.21-.47.33-.47.1,0,.18.1.29.37.28.64,2.15,5.41,2.9,7.18.44,1.05.78,1.21,1.03,1.27.18.03.35.05.49.05.09,0,.15.01.15.09,0,.09-.1.12-.53.12s-1.27,0-2.21-.02c-.21-.01-.35-.01-.35-.09,0-.07.05-.09.16-.11.08-.02.17-.13.11-.27l-.93-2.48c-.02-.06-.06-.08-.12-.08h-2.61Zm2.38-.58c.06,0,.07-.03.06-.07l-1.05-2.88s-.02-.11-.06-.11-.06.06-.07.11l-1.07,2.87s0,.08.05.08h2.15Z"/><path class="cls-3" d="m120.22,140.44c0-1.77,0-2.1-.02-2.48-.02-.4-.12-.58-.5-.67-.09-.02-.29-.03-.45-.03-.13,0-.2-.02-.2-.11s.08-.1.26-.1c.62,0,1.35.03,1.6.03.4,0,1.28-.03,1.64-.03.74,0,1.52.07,2.15.5.33.22.79.82.79,1.6,0,.86-.36,1.66-1.54,2.61,1.04,1.31,1.84,2.35,2.53,3.07.65.68,1.13.76,1.31.79.13.02.23.03.33.03s.14.04.14.09c0,.09-.08.12-.22.12h-1.11c-.65,0-.94-.06-1.25-.22-.5-.27-.94-.82-1.6-1.72-.47-.64-1-1.44-1.16-1.61-.06-.07-.13-.08-.21-.08l-1.02-.02c-.06,0-.09.02-.09.09v.16c0,1.09,0,2.01.06,2.5.04.34.1.6.46.64.18.02.43.05.57.05.09,0,.14.04.14.09,0,.08-.08.12-.23.12-.68,0-1.54-.04-1.72-.04-.22,0-.96.04-1.43.04-.15,0-.23-.04-.23-.12,0-.06.05-.09.19-.09.18,0,.32-.02.42-.05.23-.05.29-.3.34-.64.06-.49.06-1.41.06-2.49v-2.06Zm1.38.92c0,.13.02.18.1.21.25.08.6.12.89.12.47,0,.62-.05.83-.2.35-.26.69-.79.69-1.75,0-1.66-1.1-2.14-1.79-2.14-.29,0-.5.01-.62.05-.08.02-.1.07-.1.16v3.55Z"/><path class="cls-3" d="m139.53,140.44c0-1.77,0-2.1-.02-2.48-.02-.4-.14-.6-.4-.65-.13-.03-.28-.05-.42-.05-.12,0-.19-.02-.19-.12,0-.07.09-.09.28-.09.44,0,1.18.03,1.52.03.29,0,.98-.03,1.43-.03.15,0,.24.02.24.09,0,.09-.07.12-.19.12s-.21.01-.35.03c-.32.06-.41.26-.43.67-.02.37-.02.7-.02,2.48v2.06c0,1.13,0,2.05.05,2.56.04.32.12.53.47.57.16.02.42.05.6.05.13,0,.19.04.19.09,0,.08-.09.12-.22.12-.77,0-1.51-.04-1.82-.04-.27,0-1.01.04-1.47.04-.15,0-.23-.04-.23-.12,0-.06.05-.09.19-.09.18,0,.32-.02.42-.05.23-.05.31-.25.34-.58.06-.49.06-1.41.06-2.55v-2.06Z"/><path class="cls-3" d="m155.78,142.84c-.06,0-.08.02-.1.09l-.63,1.67c-.12.29-.18.57-.18.71,0,.21.1.36.47.36h.17c.14,0,.18.02.18.09,0,.09-.07.12-.2.12-.37,0-.88-.04-1.24-.04-.13,0-.77.04-1.38.04-.15,0-.22-.02-.22-.12,0-.07.05-.09.14-.09.1,0,.27-.01.36-.02.54-.07.76-.47.99-1.05l2.93-7.33c.14-.34.21-.47.33-.47.11,0,.18.1.29.37.28.64,2.15,5.41,2.9,7.18.44,1.05.78,1.21,1.03,1.27.18.03.35.05.49.05.09,0,.15.01.15.09,0,.09-.1.12-.54.12s-1.27,0-2.21-.02c-.21-.01-.35-.01-.35-.09,0-.07.05-.09.16-.11.08-.02.16-.13.1-.27l-.93-2.48c-.02-.06-.06-.08-.12-.08h-2.6Zm2.38-.58c.06,0,.07-.03.06-.07l-1.05-2.88s-.03-.11-.06-.11c-.04,0-.06.06-.07.11l-1.07,2.87s0,.08.05.08h2.15Z"/></g></g></svg>