<svg width="30" height="30" viewBox="0 0 30 30" fill="none" xmlns="http://www.w3.org/2000/svg">
<circle cx="15.1111" cy="14.8889" r="14.8889" fill="#121926"/>
<path d="M11.2774 21.7129H7.93323V10.9441H11.2774V21.7129ZM9.60328 9.47516C8.53408 9.47516 7.6665 8.58918 7.6665 7.52002C7.6665 7.00637 7.87056 6.51376 8.23377 6.15056C8.59699 5.78736 9.08962 5.58331 9.60328 5.58331C10.1169 5.58331 10.6096 5.78736 10.9728 6.15056C11.336 6.51376 11.5401 7.00637 11.5401 7.52002C11.5401 8.58918 10.6725 9.47516 9.60328 9.47516ZM23.7933 21.7129H20.4566V16.4708C20.4566 15.2213 20.4313 13.6193 18.718 13.6193C16.9794 13.6193 16.7127 14.9765 16.7127 16.3809V21.7129H13.372V10.9441H16.579V12.4131H16.6257C17.0721 11.5668 18.1627 10.6739 19.7895 10.6739C23.174 10.6739 23.7961 12.9027 23.7961 15.7974V21.7129H23.7933Z" fill="white"/>
</svg>
