<svg width="24" height="24" viewBox="0 0 24 24" fill="none" xmlns="http://www.w3.org/2000/svg">
<path fill-rule="evenodd" clip-rule="evenodd" d="M2.30769 2.61538H7.35813C7.52819 2.61538 7.66582 2.47775 7.66582 2.30769C7.66582 2.13763 7.52819 2 7.35813 2H2.30769C2.13763 2 2 2.13763 2 2.30769C2 2.47775 2.1376 2.61538 2.30769 2.61538ZM21.5003 2.14835H19.8622C19.5862 2.14835 19.3625 2.37235 19.3625 2.64804V4.28925C19.3625 4.56524 19.5862 4.78893 19.8622 4.78893H21.5003C21.776 4.78893 22 4.56524 22 4.28925V2.64804C22 2.37232 21.776 2.14835 21.5003 2.14835ZM18.4868 7.56826L15.5207 9.51901C14.8347 8.45887 13.577 7.68214 12.1115 7.68211V4.1283C13.1143 4.1283 14.0759 4.32467 14.958 4.68005L14.9611 4.6698C15.1759 3.96369 15.8163 3.48923 16.5542 3.48923H18.0578C18.2279 3.48923 18.3655 3.62686 18.3655 3.79692C18.3655 3.96698 18.2279 4.10461 18.0578 4.10461H16.5542C16.0891 4.10461 15.6853 4.40356 15.55 4.84888L15.523 4.93777C16.7287 5.54173 17.7564 6.45153 18.4899 7.56826H18.4868ZM8.02558 11.765C8.02558 14.0419 9.88095 15.848 12.1117 15.848V15.848H12.1886L12.7886 19.3403V19.371C12.564 19.3926 12.3394 19.4018 12.1117 19.4018C11.1554 19.4018 10.2398 19.2238 9.39452 18.9016L9.34655 19.0592C9.13172 19.7653 8.49139 20.2398 7.75343 20.2398H6.24985C6.07979 20.2398 5.94216 20.1021 5.94216 19.9321C5.94216 19.762 6.07979 19.6244 6.24985 19.6244H7.75343C8.21856 19.6244 8.62241 19.3254 8.75764 18.8801L8.82496 18.6589C6.25714 17.4319 4.47488 14.8119 4.47488 11.7619C4.47488 7.76503 7.55482 4.4666 11.4963 4.15584V7.72811C9.53326 8.02349 8.02558 9.71885 8.02558 11.765ZM2.80745 18.94H4.44528C4.72158 18.94 4.94497 19.1637 4.94497 19.4397V21.0809C4.94497 21.3569 4.72158 21.5806 4.44528 21.5806H2.80745C2.53145 21.5806 2.30776 21.3569 2.30776 21.0809V19.4397C2.30776 19.1637 2.53145 18.94 2.80745 18.94ZM17.8532 19.6245H16.3496C15.8845 19.6245 15.4806 19.3252 15.3451 18.8802L15.2763 18.6538C17.9884 17.4034 19.4605 15.0557 19.7056 12.5466V12.5312C19.8642 11.1027 19.574 9.47716 18.8071 8.09739L15.8195 10.0574V10.0604C16.0823 10.4988 16.3462 11.7059 16.0902 12.6789C15.7331 14.337 14.2853 15.5785 12.8041 15.7896L12.8086 15.816L12.8087 15.8162L12.8109 15.8291L12.8126 15.8394C12.8858 16.266 13.4041 19.2867 13.4041 19.2911C13.864 19.1851 14.2965 19.0507 14.7061 18.8949L14.7562 19.0596C14.9716 19.7654 15.6119 20.2398 16.3496 20.2398H17.8532C18.0232 20.2398 18.1609 20.1022 18.1609 19.9322C18.1609 19.7621 18.0233 19.6245 17.8532 19.6245ZM19.657 18.94H21.2951C21.5708 18.94 21.7948 19.1637 21.7948 19.4397V21.0809C21.7948 21.3569 21.5708 21.5806 21.2951 21.5806H19.657C19.381 21.5806 19.1573 21.3569 19.1573 21.0809V19.4397C19.1573 19.1637 19.381 18.94 19.657 18.94ZM5.99663 4.07786C5.99663 4.24792 5.859 4.38555 5.68894 4.38555H2.30769C2.13763 4.38555 2 4.24792 2 4.07786C2 3.9078 2.13763 3.77018 2.30769 3.77018H5.68894C5.859 3.77018 5.99663 3.9078 5.99663 4.07786Z" fill="#536BB2"/>
</svg>
