<svg width="24" height="24" viewBox="0 0 24 24" fill="none" xmlns="http://www.w3.org/2000/svg">
<path fill-rule="evenodd" clip-rule="evenodd" d="M7.6875 9.03125C5.74887 9.03125 4.17188 7.45426 4.17188 5.51562C4.17188 3.57699 5.74887 2 7.6875 2H15.8906C17.8293 2 19.4062 3.57699 19.4062 5.51562C19.4062 7.45426 17.8293 9.03125 15.8906 9.03125V11.6651L12.7481 9.03125H10.83L7.6875 11.6651V9.03125ZM14.7188 4.92969H13.5469V6.10156H14.7188V4.92969ZM12.375 4.92969H11.2031V6.10156H12.375V4.92969ZM10.0312 4.92969H8.85938V6.10156H10.0312V4.92969ZM7.10156 17.3125C8.39598 17.3125 9.44531 16.2632 9.44531 14.9688C9.44531 13.6743 8.39598 12.625 7.10156 12.625C5.80715 12.625 4.75781 13.6743 4.75781 14.9688C4.75781 16.2632 5.80715 17.3125 7.10156 17.3125ZM7.10156 17.3125H9.44531C10.4146 17.3125 11.2031 18.101 11.2031 19.0703V22H3V19.0703C3 18.101 3.78852 17.3125 4.75781 17.3125H7.10156ZM12.375 22V19.0703C12.375 18.101 13.1635 17.3125 14.1328 17.3125H16.4766H18.8203C19.7896 17.3125 20.5781 18.101 20.5781 19.0703V22H12.375ZM16.4766 17.3125C15.1821 17.3125 14.1328 16.2632 14.1328 14.9688C14.1328 13.6743 15.1821 12.625 16.4766 12.625C17.771 12.625 18.8203 13.6743 18.8203 14.9688C18.8203 16.2632 17.771 17.3125 16.4766 17.3125Z" fill="#536BB2"/>
</svg>
