<svg width="24" height="24" viewBox="0 0 24 24" fill="none" xmlns="http://www.w3.org/2000/svg">
<path fill-rule="evenodd" clip-rule="evenodd" d="M2.74426 6.02786C3.8772 6.1216 6.23316 6.31653 6.83331 6.91668C6.99992 7 6.99999 7.16653 7.00003 7.24992V7.25004C6.88052 8.80361 6.07547 11.5141 5.62945 13.0157L5.62945 13.0157L5.62945 13.0157C5.45345 13.6083 5.33336 14.0126 5.33336 14.0833C5.25 14.25 5.08336 14.3333 4.91668 14.3333H2.41668C2.16668 14.3333 2 14.1667 2 13.9167V6.41668C2 6.33336 2.08332 6.16668 2.16664 6.08332C2.24996 6 2.33332 6 2.41664 6C2.50811 6.00832 2.61867 6.01747 2.74425 6.02786L2.74426 6.02786L2.74426 6.02786ZM14.125 8.32741L14.1251 8.32741C14.626 8.52663 15.1677 8.74203 15.75 8.91673C16.1667 9.66673 17.1667 12.5001 17.75 14.1668H17.6667C17.0833 13.4168 15.9167 12.4168 14.75 11.5001C14.4333 11.2186 14.1166 10.9519 13.825 10.7063L13.8249 10.7063L13.8248 10.7062L13.8248 10.7062C13.4259 10.3704 13.074 10.0741 12.8333 9.83337C12.7917 9.83337 12.7292 9.81255 12.6667 9.79172L12.6667 9.79171C12.6042 9.77088 12.5417 9.75005 12.5 9.75005H12.3333C12.0837 9.83325 11.9172 9.91649 11.7507 9.9997L11.7507 9.9997L11.75 10.0001C11.6716 10.0262 11.6095 10.0524 11.5536 10.0759L11.5536 10.0759C11.4313 10.1275 11.3382 10.1667 11.1667 10.1667C11 10.1667 10.9167 10.2501 10.8334 10.3334C10.25 11.2501 9.66672 11.1668 9.25004 11.0001C9.08336 10.9167 9.08336 10.9167 9.08336 10.8334C9.00004 10.5001 9.41672 9.66673 10 9.08341C11.3334 7.7501 12 7.41674 13.5 8.08341C13.7008 8.15871 13.9092 8.24155 14.125 8.32741ZM21.5833 6.83333C18.782 6.83333 17.0332 7.45246 16.5503 7.6234C16.473 7.65077 16.4282 7.66665 16.4166 7.66665L16.1666 7.91665C16.1666 7.99997 16.1666 8.16665 16.25 8.24997C16.75 9.08329 18.4166 13.6666 18.6666 14.8333C18.75 15 18.9166 15.1666 19.0833 15.1666H21.5833C21.8333 15.1666 22 14.9999 22 14.7499V7.24993C22 7.00001 21.8333 6.83333 21.5833 6.83333ZM14.4066 12.4244C15.5675 13.3493 16.7786 14.314 17.0834 15C17.2501 15.3333 17.0834 15.5833 17.0001 15.6667L17.0001 15.6667C16.8334 15.75 16.6668 15.8333 16.5001 15.75L14.0834 13.3333C13.9168 13.1666 13.6668 13.1667 13.5001 13.3333C13.3334 13.5 13.3334 13.75 13.5001 13.9166L15.8334 16.25C15.7753 16.3662 15.6767 16.4419 15.5941 16.5053C15.5582 16.5329 15.5253 16.5581 15.5001 16.5833C15.2501 16.6666 14.9168 16.6666 14.8334 16.5833L12.7501 14.5C12.5835 14.3333 12.3335 14.3333 12.1668 14.5C12.0001 14.6666 12.0001 14.9166 12.1668 15.0833L14.0835 17C14.0001 17.25 13.9168 17.4167 13.6668 17.5C13.6251 17.5 13.5835 17.5052 13.5418 17.5104C13.4168 17.526 13.2918 17.5417 13.1668 17.4167L11.5001 15.75C11.3335 15.5833 11.0835 15.5833 10.9168 15.75C10.7501 15.9166 10.7501 16.1666 10.9168 16.3333L12.2502 17.6667H12.0002C11.7502 17.6667 11.2502 17.5 11.0002 17.3333C10.9582 17.3019 10.8925 17.2533 10.8066 17.1897C10.2094 16.7478 8.63424 15.5822 7.25017 14.4167C7.08595 14.3072 6.88577 14.0898 6.67326 13.8591C6.56224 13.7386 6.44787 13.6144 6.33349 13.5C6.75013 12.3333 7.33349 10.1667 7.66681 8.5H9.33349C8.75013 9.08332 8.00013 10.25 8.16681 11.0833C8.25013 11.4166 8.50013 11.75 8.91681 11.8333C9.83345 12.1666 10.6668 11.8333 11.3334 11C11.5775 11 11.6875 10.9553 11.827 10.8987C11.8781 10.878 11.9331 10.8556 12.0001 10.8333C12.0001 10.7865 12.0527 10.766 12.1135 10.7422C12.161 10.7237 12.2136 10.7032 12.2501 10.6666C12.4362 10.8217 12.6455 10.9884 12.8692 11.1666C13.2464 11.4671 13.665 11.8005 14.0834 12.1667C14.1902 12.2521 14.2982 12.3381 14.4066 12.4244Z" fill="#536BB2"/>
</svg>
