<svg width="24" height="24" viewBox="0 0 24 24" fill="none" xmlns="http://www.w3.org/2000/svg">
<path fill-rule="evenodd" clip-rule="evenodd" d="M15.8085 4.10841C16.087 4.26924 16.4459 4.17555 16.609 3.89387L17.1949 2.87871C17.357 2.5984 17.2608 2.24013 16.9804 2.07823C16.7005 1.91694 16.3418 2.01307 16.1799 2.29277L15.594 3.30794C15.4319 3.58824 15.528 3.94652 15.8085 4.10841ZM8.19131 4.10848C7.91284 4.26931 7.55395 4.17562 7.39083 3.89394L6.8049 2.87877C6.64285 2.59847 6.73898 2.24019 7.01943 2.0783C7.29806 1.91686 7.65801 2.01314 7.81991 2.29284L8.40585 3.308C8.5679 3.58831 8.47177 3.94643 8.19131 4.10848ZM4.17387 5.63302L5.18904 6.21896C5.46934 6.38085 5.56547 6.73898 5.40358 7.01943C5.24031 7.30111 4.88157 7.3948 4.6031 7.23397L3.58793 6.64804C3.30763 6.48614 3.2115 6.12802 3.37339 5.84756C3.53529 5.5671 3.89357 5.47097 4.17387 5.63302ZM4.34375 10.8281C4.34375 10.5043 4.08161 10.2422 3.75781 10.2422H2.58594C2.26215 10.2422 2 10.5043 2 10.8281C2 11.1521 2.26215 11.4141 2.58594 11.4141H3.75781C4.08161 11.4141 4.34375 11.1521 4.34375 10.8281ZM21.4141 10.2422H20.2422C19.9184 10.2422 19.6563 10.5043 19.6563 10.8281C19.6563 11.1521 19.9184 11.4141 20.2422 11.4141H21.4141C21.7379 11.4141 22 11.1521 22 10.8281C22 10.5043 21.7379 10.2422 21.4141 10.2422ZM20.412 15.0082L19.3969 14.4222C19.116 14.2608 18.7578 14.3563 18.5964 14.6368C18.4345 14.9172 18.5306 15.2753 18.8109 15.4372L19.8261 16.0232C20.1046 16.184 20.4633 16.0903 20.6266 15.8086C20.7885 15.5282 20.6923 15.1701 20.412 15.0082ZM4.6031 14.4222L3.58793 15.0082C3.30763 15.1701 3.2115 15.5282 3.37339 15.8086C3.53666 16.0905 3.8954 16.1842 4.17387 16.0232L5.18904 15.4372C5.46934 15.2753 5.56547 14.9172 5.40358 14.6368C5.24107 14.3563 4.88112 14.2608 4.6031 14.4222ZM20.412 6.64804L19.3969 7.23397C19.1184 7.39495 18.7597 7.30126 18.5964 7.01943C18.4345 6.73898 18.5306 6.38085 18.8109 6.21896L19.8261 5.63302C20.1041 5.47097 20.4641 5.5671 20.6266 5.84756C20.7885 6.12802 20.6923 6.48614 20.412 6.64804ZM10.6194 4.5271C12.5668 4.12092 14.5499 4.59409 16.0635 5.82487C17.5774 7.05564 18.4455 8.87922 18.4455 10.8282C18.4455 12.5975 17.7062 14.3085 16.4176 15.522C15.5253 16.3617 15.0256 17.3927 14.9572 18.4454H12.5861V15.6932L14.7994 12.3732L15.9301 11.2425C16.159 11.0136 16.159 10.6428 15.9301 10.414C15.7012 10.1851 15.3304 10.1851 15.1016 10.414L14.344 11.1716L13.5864 10.414C13.3575 10.1851 12.9867 10.1851 12.7578 10.414L12.0002 11.1716L11.2426 10.414C11.0137 10.1851 10.6429 10.1851 10.414 10.414L9.65645 11.1716L8.89885 10.414C8.66997 10.1851 8.29918 10.1851 8.0703 10.414C7.84141 10.6428 7.84141 11.0136 8.0703 11.2425L9.20097 12.3732L11.4143 15.6932V18.4454H9.00963C8.87108 17.3323 8.36906 16.275 7.54326 15.4849C5.99098 13.9976 5.28419 11.8307 5.6533 9.68733C6.09398 7.12827 8.08983 5.05414 10.6194 4.5271ZM13.1719 11.6566L12.4143 12.4142C12.1855 12.6431 11.8147 12.6431 11.5858 12.4142L10.8282 11.6566L10.4102 12.0745L12.0001 14.4593L13.5899 12.0745L13.1719 11.6566ZM10.8281 22C9.85889 22 9.07032 21.2114 9.07032 20.2422V19.6172H14.9297V20.2422C14.9297 21.2114 14.1411 22 13.1719 22H10.8281Z" fill="#536BB2"/>
</svg>
