<svg width="20" height="20" viewBox="0 0 20 20" fill="none" xmlns="http://www.w3.org/2000/svg">
<path fill-rule="evenodd" clip-rule="evenodd" d="M2.12523 7.38727C2.12523 7.03457 2.21883 6.68184 2.5157 6.4643C2.71086 6.32133 2.95496 6.26734 3.19344 6.26734C3.43195 6.26734 3.67609 6.32133 3.87129 6.4643C4.1682 6.6818 4.26187 7.03453 4.26187 7.38727C4.26187 7.70844 4.18484 8.04012 4.0175 8.31629C3.87336 8.55426 3.6559 8.75644 3.3793 8.82211C3.3184 8.83656 3.25605 8.84391 3.19344 8.84391C3.13074 8.84391 3.06832 8.83652 3.0073 8.82203C2.73082 8.75625 2.51344 8.55406 2.36941 8.31613C2.20223 8.04 2.12523 7.7084 2.12523 7.38727ZM17.6519 0H17.7746H19.8962L19.6534 0.466484C19.6293 0.512773 19.6293 0.56793 19.6534 0.614219L19.8962 1.0807H17.7746V3.32566C17.7199 3.31234 17.6627 3.30523 17.6039 3.30523C17.5452 3.30523 17.4881 3.31137 17.4332 3.32309V0H17.6519ZM17.5845 7.17441L16.4012 7.22164H16.3988C16.0618 7.22164 15.7463 7.35461 15.5083 7.59305C15.2702 7.83156 15.1376 8.14734 15.1376 8.48453V10.528C15.1376 10.5851 15.168 10.6379 15.2174 10.6664L17.6177 12.0541V14.162H16.3664V12.6935C16.3664 12.6356 16.3352 12.5824 16.2846 12.554L13.8107 11.1662C13.7613 11.1386 13.7009 11.1391 13.652 11.1678C13.603 11.1965 13.5727 11.2489 13.5727 11.3057V15.2553H12.2393V8.03789C12.2393 7.97164 12.1984 7.91242 12.1366 7.88867C12.0747 7.86488 12.0049 7.88176 11.9606 7.93102L11.1777 8.80191C11.0647 8.92762 10.9383 9.00836 10.7768 9.0582L9.12008 9.56984L9.14281 9.3825C9.16004 9.24051 9.14371 9.09625 9.08844 8.96375C9.04879 8.86867 8.9909 8.78391 8.91973 8.70969L8.78844 8.57281L10.001 8.14445C10.2139 8.06922 10.3798 7.95434 10.5252 7.78152L11.02 7.19348C11.1956 6.98484 11.3768 6.76605 11.5745 6.57816C11.7285 6.43176 11.8971 6.30324 12.0988 6.23047C12.2304 6.18301 12.3658 6.16293 12.5055 6.16293L16.6494 6.16281C16.8744 6.16043 17.0572 5.975 17.0577 5.75023L17.0614 4.02637C17.062 3.71977 17.3038 3.50922 17.6039 3.50922C17.8893 3.50922 18.1215 3.74121 18.1215 4.02664V6.64477C18.1215 6.94219 17.8795 7.17277 17.5845 7.17441ZM0 20V19.0879H4.7602V20H0ZM5.07992 20V18.1867H9.84012V20H5.07992ZM10.1598 20V17.2425H14.92V20H10.1598ZM15.2398 20V16.1107H20V20H15.2398ZM1.78043 10.7281V17.3786H3.07684V13.9773C3.07684 13.9205 3.10723 13.8681 3.15613 13.8393C3.20508 13.8105 3.26547 13.81 3.315 13.8378L5.73313 15.1945C5.78363 15.2228 5.81484 15.2761 5.81484 15.334V16.3846H7.03086V14.7109L4.68629 13.3555C4.63688 13.3269 4.60648 13.2741 4.60648 13.217V11.6205C4.60648 11.2905 4.73641 10.9815 4.96945 10.7481C5.20246 10.5147 5.51105 10.3844 5.84102 10.3844H6.60074C6.70828 10.3844 6.79945 10.3687 6.90074 10.3326L8.53223 9.75082C8.65133 9.7007 8.7457 9.59746 8.79438 9.47879C8.84621 9.35242 8.84574 9.21273 8.79316 9.08664C8.68531 8.82801 8.38625 8.70277 8.12691 8.80848C7.88918 8.8918 7.64828 8.97055 7.40953 9.05129C7.16895 9.13266 6.92836 9.2141 6.6877 9.29531C6.55773 9.33914 6.43641 9.35918 6.29926 9.35918H2.06816C1.66336 9.35918 1.10707 9.46543 0.82293 9.77828C0.68832 9.92648 0.624023 10.1061 0.624023 10.3057V13.3182C0.624023 13.7357 0.910508 14.0843 1.30063 14.2108L1.46074 14.2628V10.7281C1.46074 10.6398 1.53234 10.5683 1.62059 10.5683C1.70887 10.5682 1.78043 10.6398 1.78043 10.7281ZM12.9618 4.07508C12.9618 4.40441 13.0409 4.74441 13.2125 5.02754C13.3603 5.27137 13.5831 5.47852 13.8664 5.54617C13.9293 5.56117 13.9937 5.56883 14.0583 5.56883C14.1229 5.56883 14.1872 5.56121 14.25 5.54621C14.5334 5.47859 14.7563 5.27148 14.9042 5.02766C15.0759 4.74449 15.155 4.40445 15.155 4.07504C15.155 3.71309 15.0591 3.3509 14.7543 3.1277C14.5539 2.98098 14.3032 2.92566 14.0584 2.92566C13.8136 2.92566 13.5629 2.98102 13.3626 3.1277C13.0578 3.35098 12.9618 3.71312 12.9618 4.07508Z" fill="#536BB2"/>
</svg>
