<svg width="24" height="24" viewBox="0 0 24 24" fill="none" xmlns="http://www.w3.org/2000/svg">
<path fill-rule="evenodd" clip-rule="evenodd" d="M18.1967 8.93965C19.2943 9.94719 20.5277 10.7958 21.861 11.4606C22.0195 11.5295 21.9816 11.9703 21.7818 12.2114C19.7797 14.6048 17.0325 14.3302 14.2853 14.0556C11.6644 13.7937 9.04345 13.5317 7.06944 15.5864L4.34186 5.81947C4.3148 5.72023 4.27667 5.62435 4.22822 5.53362C6.20331 3.44899 8.83565 3.71212 11.4683 3.97529C14.2157 4.24993 16.9633 4.5246 18.9647 2.13104C19.1645 1.88996 19.3539 1.99328 19.3126 2.34456C19.0514 4.45647 18.6476 6.54826 18.1037 8.60559C18.0684 8.72556 18.1045 8.8552 18.1967 8.93965ZM7.4226 21.8725L7.05485 21.9753C6.70113 22.0741 6.33425 21.8675 6.23541 21.5138L2.03087 6.46771C1.90733 6.02552 2.16564 5.5669 2.60783 5.44336L2.65532 5.4301C2.86766 5.37076 3.09487 5.3982 3.28697 5.50639C3.47907 5.61458 3.62032 5.79465 3.67965 6.00699L7.88408 21.053C7.98292 21.4068 7.77631 21.7736 7.4226 21.8725Z" fill="#536BB2"/>
</svg>
