<svg width="24" height="24" viewBox="0 0 24 24" fill="none" xmlns="http://www.w3.org/2000/svg">
<path fill-rule="evenodd" clip-rule="evenodd" d="M12.0606 6.6875C12.1678 4.24055 12.8962 2 13.211 2C13.5258 2 14.2542 4.24055 14.3613 6.6875H12.0606ZM14.6485 2.2242C15.1767 3.41854 15.4779 5.17651 15.5412 6.68748H18.4254C18.1844 4.54514 16.6712 2.80201 14.6485 2.2242ZM13.211 12.5469C12.8962 12.5469 12.1678 10.3063 12.0606 7.85938H14.3613C14.2542 10.3063 13.5257 12.5469 13.211 12.5469ZM2.58594 13.7188H4.42188C5.0691 13.7188 5.59375 14.2434 5.59375 14.8906V20.8281C5.59375 21.4753 5.0691 22 4.42188 22H2.58594C2.26234 22 2 21.7377 2 21.4141V14.3047C2 13.981 2.26234 13.7188 2.58594 13.7188ZM15.5412 7.85938C15.4779 9.37035 15.1768 11.1283 14.6485 12.3227C16.6712 11.7449 18.1844 10.0017 18.4254 7.85938H15.5412ZM7.99691 7.85938H10.8812C10.9444 9.37035 11.2456 11.1283 11.7738 12.3227C9.75113 11.7448 8.23796 10.0017 7.99691 7.85938ZM7.99691 6.68748H10.8812C10.9444 5.17651 11.2456 3.41854 11.7738 2.2242C9.75117 2.80201 8.23796 4.54514 7.99691 6.68748ZM19.9727 14.0938C20.3711 13.6602 21.0391 13.5899 21.5196 13.9415C22.0469 14.3282 22.1523 15.0782 21.7656 15.5938C21.6247 15.7935 20.2992 17.7312 19.343 19.1292C18.8417 19.862 18.4419 20.4465 18.3672 20.5547C17.7286 21.406 16.7032 22 15.5547 22H8.83988C8.13391 22 7.4327 21.8645 6.76562 21.6364V14.2465C7.4602 13.7553 8.26789 13.4962 9.0859 13.4962C10.4 13.4962 11.1932 13.9552 12.0976 14.7501C12.2031 14.8321 12.3672 14.8907 12.4844 14.8907H15.5309C16.1453 14.8907 16.6733 15.3543 16.7227 15.9667C16.7782 16.654 16.2309 17.2345 15.5547 17.2345H11.4063C11.0827 17.2345 10.8204 17.4968 10.8204 17.8204C10.8204 18.144 11.0827 18.4063 11.4063 18.4063H15.9414C16.1641 18.4063 16.586 18.2657 16.8086 18.0313L19.9727 14.0938Z" fill="#536BB2"/>
</svg>
