<svg width="24" height="24" viewBox="0 0 24 24" fill="none" xmlns="http://www.w3.org/2000/svg">
<path fill-rule="evenodd" clip-rule="evenodd" d="M5.46715 6.06624C7.05232 4.32123 9.22219 3.29797 11.577 3.18493C13.9318 3.07176 16.1897 3.88267 17.9347 5.46784L18.2983 5.79815L17.0193 5.85956C16.6961 5.87507 16.4467 6.1496 16.4622 6.47277C16.4773 6.78637 16.7362 7.03051 17.0469 7.03051C17.0563 7.03051 17.0659 7.03027 17.0754 7.02981L19.7671 6.90062C20.0903 6.88512 20.3397 6.61058 20.3241 6.28742L20.1949 3.59567C20.1795 3.27251 19.9044 3.02321 19.5818 3.03864C19.2586 3.05414 19.0092 3.32868 19.0247 3.65185L19.0861 4.93096L18.7225 4.6006C16.7458 2.80504 14.1881 1.88687 11.5208 2.01468C8.85343 2.14273 6.39552 3.3018 4.59996 5.27846C2.31791 7.79055 1.46907 11.253 2.32923 14.5404C2.39814 14.8037 2.6356 14.978 2.89557 14.978C2.94467 14.978 2.99455 14.9718 3.04424 14.9588C3.35725 14.8769 3.54456 14.5568 3.46268 14.2438C2.70314 11.3411 3.45249 8.28404 5.46715 6.06624ZM8.12026 13.8832C8.12026 15.1144 9.12191 16.116 10.3531 16.116H13.6473C14.8785 16.116 15.8801 15.1143 15.8801 13.8831C15.8801 12.351 14.9874 11.0236 13.6948 10.3934C14.0299 10.0027 14.233 9.49574 14.233 8.9419C14.233 7.71068 13.2314 6.70903 12.0002 6.70903C10.769 6.70903 9.7673 7.71068 9.7673 8.9419C9.7673 9.49574 9.97043 10.0027 10.3055 10.3934C9.013 11.0236 8.12026 12.351 8.12026 13.8832ZM20.9558 9.04276C21.2687 8.96077 21.5889 9.14823 21.6708 9.4612C22.5309 12.7486 21.6821 16.211 19.4 18.7232C17.6044 20.6998 15.1465 21.8589 12.4792 21.9869C12.3153 21.9948 12.1516 21.9987 11.9886 21.9987C9.49949 21.9988 7.13271 21.0862 5.27753 19.401L4.9139 19.0706L4.9753 20.3497C4.99085 20.6729 4.74144 20.9474 4.41827 20.9629C4.40874 20.9634 4.39921 20.9636 4.38975 20.9636C4.07909 20.9636 3.82014 20.7195 3.8051 20.4059L3.67592 17.7142C3.66037 17.391 3.90979 17.1165 4.23295 17.101L6.92466 16.9718C7.24736 16.956 7.52236 17.2056 7.53783 17.5288C7.55337 17.852 7.30396 18.1265 6.98079 18.142L5.70172 18.2034L6.06535 18.5337C7.70302 20.0214 9.79269 20.827 11.9899 20.8271C12.134 20.8271 12.2782 20.8236 12.423 20.8167C14.7779 20.7036 16.9477 19.6804 18.5329 17.9353C20.5476 15.7175 21.2969 12.6605 20.5373 9.7578C20.4554 9.44479 20.6428 9.12467 20.9558 9.04276Z" fill="#536BB2"/>
</svg>
