<svg width="20" height="20" viewBox="0 0 20 20" fill="none" xmlns="http://www.w3.org/2000/svg">
<path d="M0.00329384 4.16554C-0.0132516 4.01418 0.0353944 3.86294 0.137073 3.7496C0.238752 3.63627 0.383854 3.57156 0.536113 3.57165H2.85738C3.05461 3.57165 3.21449 3.41177 3.21449 3.21454C3.21449 3.01731 3.05461 2.85742 2.85738 2.85742H1.25035C1.09811 2.85778 0.95291 2.79335 0.851031 2.68023C0.749152 2.5671 0.700218 2.41597 0.716457 2.2646C0.762157 1.97999 1.01339 1.77446 1.30142 1.78607H3.57161C3.76884 1.78607 3.92873 1.62618 3.92873 1.42895C3.92873 1.23172 3.76884 1.07183 3.57161 1.07183H1.96458C1.81235 1.07219 1.66715 1.00776 1.56527 0.894639C1.46339 0.781515 1.41445 0.630387 1.43069 0.479018C1.47624 0.19432 1.72757 -0.0112851 2.01565 0.000480395H7.3042C7.36929 0.000974377 7.43301 0.0192507 7.48847 0.0533338L8.93265 0.918272C9.09886 1.01792 9.28883 1.07097 9.48262 1.07183H12.8567V4.24625L12.2381 3.73986C11.774 3.38559 11.1211 3.42148 10.6986 3.82449C10.3849 4.12875 10.2758 4.5872 10.419 5.00012H9.22156C8.9405 5.00131 8.67117 5.11289 8.47162 5.31082L5.11079 8.64415L5.10364 8.65129L4.95508 8.79842C4.78088 8.96873 4.50198 8.96682 4.33013 8.79414C4.17328 8.63667 4.15798 8.38713 4.29442 8.21168L5.27649 7.01176C5.36381 6.90496 5.38182 6.75742 5.32273 6.63276C5.26364 6.50809 5.13804 6.42861 5.00008 6.42859H0.944298C0.656737 6.43983 0.406078 6.23455 0.360411 5.95041C0.344084 5.79917 0.392828 5.64812 0.494482 5.53495C0.596136 5.42178 0.74111 5.35717 0.89323 5.35724H2.85738C3.05461 5.35724 3.21449 5.19735 3.21449 5.00012C3.21449 4.80289 3.05461 4.64301 2.85738 4.64301H0.587181C0.299907 4.65413 0.0494304 4.4493 0.00329384 4.16554ZM5.94715 19.6391C5.79679 19.6553 5.64667 19.6064 5.53468 19.5048C5.42217 19.4028 5.35776 19.2581 5.3572 19.1063V19.1009V17.1421C5.3572 16.9449 5.19731 16.785 5.00008 16.785C4.80285 16.785 4.64296 16.9449 4.64296 17.1421V19.1063V19.1113V19.413C4.65277 19.7016 4.44575 19.9521 4.1605 19.9969C4.01045 20.0132 3.86062 19.9643 3.7491 19.8626C3.63633 19.7605 3.57188 19.6155 3.57161 19.4634V18.7491V18.742V17.1421C3.57161 16.9449 3.41172 16.785 3.21449 16.785C3.01726 16.785 2.85738 16.9449 2.85738 17.1421V18.7491V18.7534C2.85642 18.9049 2.79142 19.0488 2.67846 19.1497C2.5655 19.2505 2.41513 19.2988 2.26456 19.2827C1.98 19.2371 1.77444 18.986 1.78602 18.6981V18.0349V18.0295V16.4279C1.78602 16.2306 1.62614 16.0708 1.42891 16.0708C1.23168 16.0708 1.07179 16.2306 1.07179 16.4279V18.0349V18.0381C1.07113 18.1897 1.00631 18.3338 0.893388 18.4349C0.780471 18.536 0.630024 18.5845 0.479331 18.5684C0.194858 18.5229 -0.0107709 18.2721 0.000436893 17.9842V12.6956C0.000987215 12.6313 0.0178186 12.5682 0.049362 12.5121L0.918228 11.0672C1.01767 10.901 1.0707 10.7112 1.07179 10.5176V7.14283H4.24585L3.7391 7.76171C3.4124 8.15909 3.38916 8.72504 3.68219 9.14786C3.97522 9.57068 4.5133 9.74762 5.00008 9.58122V10.7783C5.00126 11.0593 5.11285 11.3287 5.31077 11.5282L8.64125 14.8851C8.64517 14.8894 8.6491 14.8933 8.65339 14.8973L8.79874 15.0437C8.92387 15.1711 8.96026 15.3611 8.89104 15.5257C8.82182 15.6903 8.66052 15.7972 8.48197 15.7969C8.38479 15.7973 8.29034 15.7647 8.21414 15.7044L7.01458 14.7226C6.9078 14.6335 6.75895 14.6144 6.63315 14.6738C6.50735 14.7332 6.42751 14.8603 6.42855 14.9994V19.0552C6.43843 19.3434 6.23198 19.5938 5.94715 19.6391ZM19.9962 15.834C20.0127 15.9853 19.9641 16.1366 19.8624 16.2499C19.7607 16.3633 19.6156 16.428 19.4633 16.4279H17.1421C16.9448 16.4279 16.785 16.5878 16.785 16.785C16.785 16.9822 16.9448 17.1421 17.1421 17.1421H18.7491C18.9013 17.1418 19.0465 17.2062 19.1484 17.3193C19.2503 17.4324 19.2992 17.5836 19.283 17.7349C19.2373 18.0195 18.9861 18.2251 18.698 18.2135H16.4278C16.2306 18.2135 16.0707 18.3734 16.0707 18.5706C16.0707 18.7678 16.2306 18.9277 16.4278 18.9277H18.0349C18.1871 18.9273 18.3323 18.9918 18.4342 19.1049C18.5361 19.218 18.585 19.3691 18.5688 19.5205C18.5232 19.8052 18.2719 20.0108 17.9838 19.9991H12.6952C12.6302 19.9986 12.5664 19.9803 12.511 19.9462L11.0668 19.0813C10.9006 18.9816 10.7106 18.9286 10.5168 18.9277H7.14278V15.7526L7.76131 16.259C8.22503 16.6146 8.8789 16.5787 9.30084 16.1743C9.61466 15.8704 9.72411 15.4123 9.58154 14.9994H10.7779C11.0589 14.9982 11.3283 14.8866 11.5278 14.6887L14.8876 11.3568L14.9001 11.3447L15.0454 11.2018C15.2196 11.0315 15.4985 11.0334 15.6704 11.2061C15.8272 11.3636 15.8425 11.6131 15.7061 11.7886L14.724 12.9885C14.6373 13.0951 14.6194 13.2421 14.6782 13.3664C14.737 13.4908 14.8619 13.5703 14.9994 13.5709H19.0551C19.3427 13.5597 19.5934 13.765 19.639 14.0491C19.6554 14.2004 19.6066 14.3514 19.505 14.4646C19.4033 14.5777 19.2583 14.6424 19.1062 14.6423H17.1421C16.9448 14.6423 16.785 14.8022 16.785 14.9994C16.785 15.1966 16.9448 15.3565 17.1421 15.3565H19.4133C19.7002 15.346 19.9501 15.5506 19.9962 15.834ZM19.999 7.30389C19.9985 7.36892 19.9803 7.4326 19.9465 7.48816L19.0812 8.93234C18.9816 9.09843 18.9286 9.28828 18.9277 9.48195V12.8567H15.7525L16.2593 12.2378C16.6271 11.7781 16.5903 11.1152 16.1739 10.699C15.862 10.3997 15.4109 10.2957 14.9994 10.4283V9.22125C14.9982 8.94019 14.8866 8.67085 14.6887 8.4713L11.3568 5.1094L11.35 5.10262L11.2025 4.95405C11.1188 4.8714 11.0721 4.75846 11.0729 4.64085C11.0737 4.52325 11.122 4.41095 11.2068 4.32946C11.3664 4.17716 11.6126 4.16208 11.7896 4.29375L12.9892 5.27546C13.0958 5.36178 13.2425 5.37933 13.3666 5.32063C13.4906 5.26193 13.57 5.13734 13.5709 5.00012V0.944341C13.5598 0.656719 13.7652 0.406108 14.0494 0.360455C14.2006 0.344236 14.3516 0.39303 14.4647 0.494671C14.5777 0.596312 14.6423 0.741223 14.6422 0.893274V2.85742C14.6422 3.05465 14.8021 3.21454 14.9994 3.21454C15.1966 3.21454 15.3565 3.05465 15.3565 2.85742V0.587224C15.3453 0.299547 15.5507 0.0488425 15.835 0.00333734C15.9862 -0.0128814 16.1372 0.0359126 16.2502 0.137554C16.3633 0.239195 16.4279 0.384106 16.4278 0.536156V2.85742C16.4278 3.05465 16.5877 3.21454 16.785 3.21454C16.9822 3.21454 17.1421 3.05465 17.1421 2.85742V1.25039C17.1418 1.09822 17.2063 0.953113 17.3194 0.851313C17.4325 0.749513 17.5836 0.700625 17.7349 0.716858C18.0194 0.762393 18.225 1.01351 18.2134 1.30146V3.57165C18.2134 3.76888 18.3733 3.92877 18.5705 3.92877C18.7678 3.92877 18.9277 3.76888 18.9277 3.57165V1.96463C18.9274 1.81245 18.9919 1.66735 19.105 1.56555C19.2181 1.46375 19.3692 1.41486 19.5205 1.43109C19.8048 1.47676 20.0102 1.72758 19.999 2.01534V7.30389Z" fill="#536BB2"/>
</svg>
